<svg xmlns="http://www.w3.org/2000/svg" width="1200" height="200" viewBox="0 0 1200 200" role="img" aria-label="Postgres Migrations Guide banner"><defs><linearGradient id="bg" x1="0%" y1="0%" x2="100%" y2="100%"><stop offset="0%" stop-color="#336791"/><stop offset="55%" stop-color="#0ea5e9"/><stop offset="100%" stop-color="#22c55e"/></linearGradient><filter id="soft"><feGaussianBlur stdDeviation="18"/></filter></defs><rect width="1200" height="200" fill="url(#bg)"/><circle cx="200" cy="20" r="90" fill="#f59e0b" opacity="0.2" filter="url(#soft)"/><circle cx="1000" cy="180" r="110" fill="#336791" opacity="0.18" filter="url(#soft)"/><rect x="30" y="30" width="38" height="140" rx="10" fill="#0ea5e9" opacity="0.2"/><rect x="75" y="30" width="38" height="140" rx="10" fill="#22c55e" opacity="0.25"/><rect x="120" y="30" width="38" height="140" rx="10" fill="#f59e0b" opacity="0.3"/><rect x="165" y="30" width="38" height="140" rx="10" fill="#336791" opacity="0.35"/><rect x="210" y="30" width="38" height="140" rx="10" fill="#0ea5e9" opacity="0.2"/><rect x="255" y="30" width="38" height="140" rx="10" fill="#22c55e" opacity="0.25"/><rect x="300" y="30" width="38" height="140" rx="10" fill="#f59e0b" opacity="0.3"/><rect x="345" y="30" width="38" height="140" rx="10" fill="#336791" opacity="0.35"/><rect x="880" y="40" width="40" height="120" rx="10" fill="#336791" opacity="0.3"/><rect x="930" y="40" width="40" height="120" rx="10" fill="#f59e0b" opacity="0.3"/><rect x="980" y="40" width="40" height="120" rx="10" fill="#22c55e" opacity="0.3"/><rect x="1030" y="40" width="40" height="120" rx="10" fill="#0ea5e9" opacity="0.3"/><rect x="1080" y="40" width="40" height="120" rx="10" fill="#336791" opacity="0.3"/><rect x="1130" y="40" width="40" height="120" rx="10" fill="#f59e0b" opacity="0.3"/><text x="600" y="95" text-anchor="middle" font-family="ui-sans-serif,system-ui,-apple-system,Segoe UI,Roboto,Helvetica,Arial,sans-serif" font-size="42" font-weight="700" fill="#ffffff">Postgres Migrations Guide</text><text x="600" y="140" text-anchor="middle" font-family="ui-sans-serif,system-ui,-apple-system,Segoe UI,Roboto,Helvetica,Arial,sans-serif" font-size="20" fill="#ffffff" opacity="0.9">manansbdb · docs · EN + PT · MIT</text></svg>
